<?xml version="1.0" encoding="UTF-8"?>
<svg id="Layer_2" data-name="Layer 2" xmlns="http://www.w3.org/2000/svg" viewBox="0 0 40 40">
  <defs>
    <style>
      .cls-1 {
        fill: #cbcfd1;
      }

      .cls-2 {
        fill: #9e9fa1;
      }

      .cls-3 {
        fill: #02284f;
      }

      .cls-4 {
        fill: #025e96;
      }
    </style>
  </defs>
  <g id="Layer_1-2" data-name="Layer 1">
    <g>
      <path class="cls-1" d="m20,3.05c-8.67,0-15.82,6.51-16.83,14.9l1.42.3c.87-7.74,7.43-13.76,15.41-13.76,2.29,0,4.46.5,6.42,1.39.28-.21.61-.37.98-.44.02,0,.03,0,.04,0,.08-.01.16-.02.24-.02.63,0,1.27.41,1.59,1.02.21.41.25.85.11,1.23.81.61,1.55,1.31,2.22,2.06l1.25-.77c-3.11-3.62-7.72-5.92-12.87-5.92Z"/>
      <path class="cls-3" d="m20,0C9.72,0,1.25,7.76.13,17.74c.09-.19.29-.32.51-.32.04,0,.08,0,.12.01l1.58.34C3.42,8.99,10.92,2.19,20,2.19c5.47,0,10.36,2.47,13.63,6.35.36-.15.74-.24,1.13-.24.16,0,.33.01.49.04.02,0,.04,0,.05.01.42.12.84.26,1.24.41C32.95,3.48,26.88,0,20,0Zm19.66,16.32c-.37,1.97-1.02,3.87-1.95,5.64-.98,8.91-8.53,15.85-17.7,15.85S3.29,30.89,2.3,22c-.7-.27-1.3-.76-1.72-1.4-.31-.48-.5-1.01-.56-1.55-.02.32-.02.64-.02.96,0,11.05,8.95,20,20,20s20-8.95,20-20c0-1.26-.12-2.49-.34-3.68Z"/>
      <g>
        <path class="cls-3" d="m33.46,27.23c-.62,1.23-1.37,2.39-2.23,3.46,0,0,0,0,0,0-.79.99-1.67,1.9-2.64,2.73.08-.22.16-.44.23-.66.28-.85.5-1.73.66-2.63,1.44-.8,2.78-1.77,3.97-2.89Z"/>
        <path class="cls-3" d="m28.39,28.44c-.22.63-.49,1.24-.81,1.82-.09.17-.19.34-.3.5,0,.01-.02.02-.02.04h0c-.11.18-.23.35-.35.52-.38.53-.8,1.02-1.26,1.47-.46.45-.96.87-1.49,1.23,0-.16,0-.31,0-.47,0-.47-.02-.94-.05-1.4,0-.12-.02-.24-.03-.36,0,0,0-.02,0-.02-.01-.12-.02-.23-.03-.35-.04-.37-.09-.74-.15-1.1,1.6-.4,3.11-1.04,4.49-1.88Z"/>
        <path class="cls-4" d="m28.99,24.82c0,.22,0,.44-.02.66,0,.13-.02.26-.03.39-.07.72-.2,1.42-.4,2.09-.05.16-.1.32-.15.47,0,0,0,0,0,0-1.38.84-2.89,1.48-4.49,1.88,0-.06-.02-.11-.03-.17-.02-.11-.04-.22-.06-.33-.1-.51-.22-1.02-.36-1.52-.03-.1-.06-.19-.09-.29-.16-.52-.33-1.04-.53-1.54l5.41-5.7c.07.17.13.35.19.53.12.43.23.86.33,1.31.05.24.1.48.14.73,0,.06.02.12.02.17h0c.03.22.05.44.06.67h0c.01.21.02.43.02.64Z"/>
        <path class="cls-3" d="m5.55,19.04l-.13,3.4v.11s-.1-.03-.1-.03l-.66-.25-1.53-.59h0s0,0,0,0c.08-.07.17-.15.25-.23.04-.03.07-.07.11-.1.08-.07.15-.14.23-.22.03-.03.07-.06.1-.1,0,0,.01-.01.02-.02.07-.07.15-.15.22-.22,0,0,0,0,0,0,.02-.02.03-.03.05-.05.07-.07.14-.15.21-.22,0,0,.01-.01.02-.02.06-.06.11-.12.16-.18.08-.09.16-.18.24-.28.04-.04.07-.08.11-.13.06-.07.11-.13.16-.2,0,0,0,0,0,0,0,0,.01-.02.02-.02.08-.1.16-.2.24-.3.09-.11.17-.22.25-.33,0,0,.02,0,.03,0Z"/>
        <path class="cls-4" d="m5.53,19.03c-.08.11-.17.22-.25.33-.08.1-.16.2-.24.3,0,0-.01.02-.02.02,0,0,0,0,0,0-.05.07-.11.13-.16.2-.03.04-.07.09-.11.13-.08.09-.16.19-.24.28-.05.06-.11.12-.16.18,0,0-.01.01-.02.02-.07.07-.14.15-.21.22-.02.02-.03.03-.05.05,0,0,0,0,0,0-.07.08-.15.15-.22.22,0,0-.01.01-.02.02-.03.03-.07.06-.1.1-.08.07-.15.15-.23.22-.03.03-.07.07-.11.1-.08.08-.17.15-.25.23,0,0,0,0,0,0l-.14-.05c-.27-.06-.52-.15-.75-.26-1.21-.61-1.9-1.98-1.61-3.37.34.07.95.2,1.63.35.27.06.56.12.84.18.5.11,1,.21,1.43.31.42.09.76.16.99.21Z"/>
        <path class="cls-3" d="m8.64,20.52l-.67.9-.05.07-.06-.08-1.82-2.45s.02-.02.03-.03c.8.6,1.67,1.13,2.57,1.58Z"/>
        <path class="cls-4" d="m9.3,19.62l-.66.89c-.91-.45-1.77-.98-2.57-1.58.61-.61,2.59-2.55,3.19-3.15,1.1,1.05,1.12,2.76.04,3.83Z"/>
        <polygon class="cls-4" points="32.11 16.4 31.62 17.19 30.74 17.49 31.18 16.68 32.11 16.4"/>
        <path class="cls-4" d="m38.99,10.62l-.92.79-.28.24-.33.28-1.12.96-.44.38-.24.21-.07.06-.43.37-.66.56-.35.3h0s-.27.24-.27.24c-.53.43-.96.78-1.19.97l-.8.09-1.04.12-1.16,2.11.06-.02s-.05.09-.07.13c.03-.01.07-.03.12-.04.41-.14,1.25-.43,1.54-.53l.37-.13-2.45,4.11c-.1-.36-.21-.72-.34-1.07-.13-.35-.27-.68-.43-1.01l-.13.14s0,0,0,0c-.03.03-.41.43-.96,1.02l-.02.02c-1.6,1.7-4.62,4.9-4.81,5.1,0,0,0,0,0-.01l-.39.42c.62,1.18,1.03,2.54,1.11,3.92t0,0c.02.25.02.5.02.76,0,0,.01,0,.02,0,0,0,0,0,0,0,0,.15,0,.3,0,.45-1.69.35-3.51.48-5.26.38l.02-.02c-.22,0-.43-.02-.65-.04-1.82-.14-3.64-.65-5.25-1.44t0,0h0c-.44-.22-.87-.46-1.29-.72-.49-.29-.94-.61-1.36-.95-.42-.35-.81-.73-1.18-1.16-.46-.53-.9-1.13-1.33-1.83-.14-.22-.27-.44-.39-.67h0c-.4-.74-.76-1.6-.89-2.41,0-.14.08-3.36.09-3.62.5.86,1.09,1.66,1.75,2.4.24.27.49.53.76.78.51.49,1.06.94,1.63,1.36-.02.01,2.23,1.1,3.13,1.02,2.18,0,4.1-1.56,4.64-3.64.13-.51.31-.96.52-1.36,1.09-2.08,3.18-2.96,5.24-4.25.12-.07.34-.21.63-.38,1.23-.75,3.62-2.2,4.21-2.56h0l3.7-2.25,1.25-.76.33-.2c.14-.09.29-.16.44-.21.37-.13.76-.16,1.15-.1.42.12.82.25,1.22.41.09.03.17.07.26.11.15.07.31.13.46.2h0s.07.03.1.05c.01,0,.02,0,.03.01.12.06.25.11.37.17.03.02.07.03.1.05,0,0,0,0,.01,0,.23.12.45.24.68.37.24.12.46.24.59.35Z"/>
        <g>
          <path class="cls-4" d="m26.17,13.34c-1.05-.43-3.25-1.96-4.94-.38-.25.22-.57.41-.88.48-.87.22-1.59-.99-1.15-1.75h0c.64-1.02,2.05-1.14,3.13-.84,1.52.39,2.73,1.42,3.84,2.49Z"/>
          <path class="cls-4" d="m26.36,13.21c-1.01-1.1-3.87-3.42-5.37-3.3.46-.4,2.44-.67,2.62-.72.11-.16,1.08-1.9,1.62-2.18-.66,1.36.47,4.86,1.13,6.2Z"/>
          <path class="cls-4" d="m28.9,7.3c-.01.14-.06.27-.15.39-.18.27-.48.5-.77.65-2.08,1-1.46,3.61-1.44,4.74-.6-1.42-1.11-2.93-.93-4.48.09-.94.55-1.98,1.4-2.43.16-.08.33-.15.52-.18h0c.73-.12,1.45.64,1.36,1.32Z"/>
        </g>
        <path class="cls-4" d="m39.43,12.6c0,.73-.04,1.46-.12,2.19-.22,1.95-.73,3.86-1.51,5.65-.29.67-.62,1.33-.99,1.96-.01.02-.03.05-.04.07-.08.14-.16.27-.24.41-.62,1-1.32,1.95-2.11,2.82-1.69,1.88-3.74,3.44-6.01,4.55.09-.17.17-.34.24-.51.46-.24.92-.5,1.36-.77.49-.31.96-.63,1.42-.98,0,0,0,0,0,0,.03-.03.07-.05.1-.08,1.14-.88,2.19-1.89,3.11-3,0,0,0,0,0,0,.03-.04.07-.08.1-.13h0c.05-.06.1-.13.15-.19.05-.06.1-.12.14-.18.05-.07.1-.13.15-.2,0,0,.01-.01.01-.02.05-.07.11-.14.16-.21,0,0,0,0,.01-.01.02-.02.04-.05.05-.07.08-.11.16-.22.23-.33.03-.04.06-.09.09-.13.11-.16.21-.31.31-.47.03-.05.07-.1.1-.15.16-.26.32-.52.46-.79.03-.04.05-.09.07-.13.06-.11.12-.21.17-.32h0c.35-.66.66-1.34.92-2.04h0c.61-1.59,1.01-3.26,1.18-4.95.02-.23.04-.46.06-.69h0c.04-.67.05-1.35.03-2.02h0l-.59.5-.68.59c-.02,1.13-.15,2.25-.38,3.35,0,0,0,0,0,0-.14.69-.33,1.37-.55,2.04-.02.07-.05.15-.08.22-.04.13-.09.25-.14.38h0c-.07.2-.15.39-.23.58t0,0c-.16.39-.34.77-.53,1.15-.13.26-.27.52-.41.77l-.06.11h0s-.03.05-.04.08c-.65,1.12-1.42,2.17-2.3,3.13-.1.1-.19.21-.29.31-.15.15-.3.3-.45.45-.34.33-.69.64-1.05.94h0c-.11.09-.21.18-.32.26-.03.03-.07.06-.1.08,0,0,0,0,0,0h0c-.09.07-.18.14-.28.21-.02.01-.03.02-.05.03,0,0,0,0,0,0-.41.3-.82.59-1.25.85.04-.16.08-.31.11-.47.39-.25.77-.52,1.14-.8.07-.06.14-.11.21-.17.23-.18.45-.37.67-.56t0,0s.01-.01.02-.02c1.11-.97,2.1-2.09,2.93-3.3h0c.4-.59.77-1.2,1.1-1.84h0c.04-.08.08-.16.12-.24.01-.03.03-.06.04-.09.04-.08.07-.15.11-.23.03-.07.07-.14.1-.21.14-.3.27-.61.39-.92.04-.1.08-.21.12-.32.04-.1.07-.2.11-.29h0c.08-.23.16-.47.23-.7.02-.05.03-.1.05-.16,0-.02.01-.03.02-.05h0c.06-.2.11-.39.16-.59h0c.12-.48.22-.96.3-1.45h0c.12-.74.2-1.49.22-2.25l-.73.62h0s-.7.59-.7.59l-.24.21c0,.08-.02.16-.03.24,0,.06-.02.12-.03.17-.02.15-.05.3-.08.45-.01.07-.02.13-.04.2-.03.13-.05.26-.08.39-.01.05-.02.1-.03.16-.05.21-.1.42-.16.63-.02.09-.05.17-.07.26v.03c-.18.57-.38,1.14-.61,1.69,0,0,0,0,0,0-.06.13-.11.26-.17.39-.06.14-.13.27-.19.41h0c-.07.14-.14.27-.21.41-1.05,2.01-2.61,3.83-4.39,5.23,0-.12,0-.26,0-.38,1.75-1.41,3.23-3.2,4.24-5.2,0,0,0,0,0,0,.02-.03.03-.07.05-.1,0,0,0,0,0,0,.41-.82.74-1.68,1-2.56,0,0,0,0,0,0,.05-.17.1-.35.14-.52,0,0,0,0,0,0,.03-.11.05-.21.08-.32.03-.11.05-.22.07-.32.02-.1.04-.21.06-.31.02-.11.04-.23.06-.34h0c.01-.08.03-.17.04-.25h0s0-.02,0-.03c0,0-.02.01-.05.04,0,0-.02.01-.03.02-.03.02-.07.06-.11.09-.01.01-.03.02-.05.04-.05.04-.1.09-.16.14-.02.01-.03.03-.05.04-.05.04-.11.09-.17.14-.56.47-1.31,1.1-1.31,1.1l-3.98,6.67c-.03-.2-.06-.39-.1-.58l3.1-5.19h0s.58-.98.63-1.05c.36-.31,1.01-.86,1.54-1.32.22-.19.42-.36.57-.49.19-.17.4-.34.6-.52.22-.19.45-.39.69-.59.25-.21.5-.42.75-.64.34-.29.68-.58,1-.85.37-.31.72-.61,1.05-.88.04.5.06.99.06,1.49Z"/>
      </g>
      <path class="cls-2" d="m33.97,26.99c.07.15.07.34,0,.5-1.24,2.44-2.92,4.58-5,6.36-.1.09-.24.14-.37.14-.11,0-.23-.03-.32-.1-.2-.14-.29-.39-.22-.63-2.35,1.43-5.1,2.25-8.05,2.25-7.57,0-13.87-5.43-15.23-12.6l-1.56-.6c1.12,8.27,8.22,14.65,16.8,14.65,7.99,0,14.68-5.52,16.48-12.95-.74,1.07-1.58,2.08-2.51,2.99Z"/>
    </g>
  </g>
</svg>